<svg xmlns="http://www.w3.org/2000/svg" xmlns:xlink="http://www.w3.org/1999/xlink" width="500" zoomAndPan="magnify" viewBox="0 0 375 374.999991" height="500" preserveAspectRatio="xMidYMid meet" version="1.0"><defs><clipPath id="f513fcb29f"><path d="M 30.238281 31.136719 L 342.988281 31.136719 L 342.988281 343.886719 L 30.238281 343.886719 Z M 30.238281 31.136719 " clip-rule="nonzero"/></clipPath><clipPath id="9f2da86174"><path d="M 161 128 L 190 128 L 190 148 L 161 148 Z M 161 128 " clip-rule="nonzero"/></clipPath><clipPath id="644e486a5a"><path d="M 190.144531 129.566406 L 162.101562 148.351562 L 160.851562 146.480469 L 188.890625 127.699219 Z M 190.144531 129.566406 " clip-rule="nonzero"/></clipPath><clipPath id="57f5f2025d"><path d="M 190.144531 129.566406 L 162.101562 148.351562 L 160.851562 146.480469 L 188.890625 127.699219 Z M 190.144531 129.566406 " clip-rule="nonzero"/></clipPath><clipPath id="c5cea089c5"><path d="M 190.144531 129.566406 L 162.101562 148.351562 L 160.851562 146.480469 L 188.890625 127.699219 Z M 190.144531 129.566406 " clip-rule="nonzero"/></clipPath><clipPath id="4291fdbdde"><path d="M 161 145 L 198 145 L 198 163 L 161 163 Z M 161 145 " clip-rule="nonzero"/></clipPath><clipPath id="59779e57d6"><path d="M 197.082031 162.90625 L 160.566406 147.203125 L 161.457031 145.136719 L 197.972656 160.839844 Z M 197.082031 162.90625 " clip-rule="nonzero"/></clipPath><clipPath id="6759a95918"><path d="M 197.082031 162.90625 L 160.566406 147.203125 L 161.457031 145.136719 L 197.972656 160.839844 Z M 197.082031 162.90625 " clip-rule="nonzero"/></clipPath><clipPath id="c7c56a3bf3"><path d="M 197.082031 162.90625 L 160.566406 147.203125 L 161.457031 145.136719 L 197.972656 160.839844 Z M 197.082031 162.90625 " clip-rule="nonzero"/></clipPath><clipPath id="07458dfe1d"><path d="M 176 152 L 212 152 L 212 169 L 176 169 Z M 176 152 " clip-rule="nonzero"/></clipPath><clipPath id="6b211a12d5"><path d="M 211.605469 169.234375 L 175.78125 153.824219 L 176.667969 151.757812 L 212.496094 167.167969 Z M 211.605469 169.234375 " clip-rule="nonzero"/></clipPath><clipPath id="7febdbce5d"><path d="M 211.605469 169.234375 L 175.78125 153.824219 L 176.667969 151.757812 L 212.496094 167.167969 Z M 211.605469 169.234375 " clip-rule="nonzero"/></clipPath><clipPath id="3e20fc9c6a"><path d="M 211.605469 169.234375 L 175.78125 153.824219 L 176.667969 151.757812 L 212.496094 167.167969 Z M 211.605469 169.234375 " clip-rule="nonzero"/></clipPath><clipPath id="e37dd93754"><path d="M 164 237 L 191 237 L 191 260 L 164 260 Z M 164 237 " clip-rule="nonzero"/></clipPath><clipPath id="19fdbec930"><path d="M 165.003906 237.296875 L 191.210938 258.558594 L 189.792969 260.304688 L 163.585938 239.042969 Z M 165.003906 237.296875 " clip-rule="nonzero"/></clipPath><clipPath id="2ac6a14f36"><path d="M 165.003906 237.296875 L 191.210938 258.558594 L 189.792969 260.304688 L 163.585938 239.042969 Z M 165.003906 237.296875 " clip-rule="nonzero"/></clipPath><clipPath id="22d748f857"><path d="M 165.003906 237.296875 L 191.210938 258.558594 L 189.792969 260.304688 L 163.585938 239.042969 Z M 165.003906 237.296875 " clip-rule="nonzero"/></clipPath><clipPath id="0ba91df4f7"><path d="M 163 174 L 198 174 L 198 194 L 163 194 Z M 163 174 " clip-rule="nonzero"/></clipPath><clipPath id="9a42396d40"><path d="M 198.667969 175.4375 L 163.4375 193.847656 L 162.398438 191.855469 L 197.625 173.445312 Z M 198.667969 175.4375 " clip-rule="nonzero"/></clipPath><clipPath id="7f355824ea"><path d="M 198.667969 175.4375 L 163.4375 193.847656 L 162.398438 191.855469 L 197.625 173.445312 Z M 198.667969 175.4375 " clip-rule="nonzero"/></clipPath><clipPath id="57f939f5a3"><path d="M 198.667969 175.4375 L 163.4375 193.847656 L 162.398438 191.855469 L 197.625 173.445312 Z M 198.667969 175.4375 " clip-rule="nonzero"/></clipPath><clipPath id="c932c5d66e"><path d="M 177 166 L 212 166 L 212 186 L 177 186 Z M 177 166 " clip-rule="nonzero"/></clipPath><clipPath id="79cb80a3c7"><path d="M 212.742188 168.167969 L 178.175781 186.230469 L 177.136719 184.238281 L 211.699219 166.171875 Z M 212.742188 168.167969 " clip-rule="nonzero"/></clipPath><clipPath id="4d99f578a1"><path d="M 212.742188 168.167969 L 178.175781 186.230469 L 177.136719 184.238281 L 211.699219 166.171875 Z M 212.742188 168.167969 " clip-rule="nonzero"/></clipPath><clipPath id="418598b4f2"><path d="M 212.742188 168.167969 L 178.175781 186.230469 L 177.136719 184.238281 L 211.699219 166.171875 Z M 212.742188 168.167969 " clip-rule="nonzero"/></clipPath><clipPath id="1971e1ff65"><path d="M 162 191 L 199 191 L 199 209 L 162 209 Z M 162 191 " clip-rule="nonzero"/></clipPath><clipPath id="4db2171a2c"><path d="M 198.347656 208.691406 L 161.832031 192.988281 L 162.722656 190.921875 L 199.238281 206.625 Z M 198.347656 208.691406 " clip-rule="nonzero"/></clipPath><clipPath id="8b1b1cbb45"><path d="M 198.347656 208.691406 L 161.832031 192.988281 L 162.722656 190.921875 L 199.238281 206.625 Z M 198.347656 208.691406 " clip-rule="nonzero"/></clipPath><clipPath id="ac18794814"><path d="M 198.347656 208.691406 L 161.832031 192.988281 L 162.722656 190.921875 L 199.238281 206.625 Z M 198.347656 208.691406 " clip-rule="nonzero"/></clipPath><clipPath id="674f3e6467"><path d="M 177 198 L 214 198 L 214 215 L 177 215 Z M 177 198 " clip-rule="nonzero"/></clipPath><clipPath id="a12f12c878"><path d="M 212.871094 215.019531 L 177.046875 199.613281 L 177.933594 197.542969 L 213.761719 212.953125 Z M 212.871094 215.019531 " clip-rule="nonzero"/></clipPath><clipPath id="08ce74a5f7"><path d="M 212.871094 215.019531 L 177.046875 199.613281 L 177.933594 197.542969 L 213.761719 212.953125 Z M 212.871094 215.019531 " clip-rule="nonzero"/></clipPath><clipPath id="a02a06cfec"><path d="M 212.871094 215.019531 L 177.046875 199.613281 L 177.933594 197.542969 L 213.761719 212.953125 Z M 212.871094 215.019531 " clip-rule="nonzero"/></clipPath><clipPath id="1ec374424a"><path d="M 164 220 L 200 220 L 200 240 L 164 240 Z M 164 220 " clip-rule="nonzero"/></clipPath><clipPath id="1127888571"><path d="M 199.976562 221.6875 L 164.746094 240.097656 L 163.703125 238.105469 L 198.933594 219.691406 Z M 199.976562 221.6875 " clip-rule="nonzero"/></clipPath><clipPath id="be00d31e5c"><path d="M 199.976562 221.6875 L 164.746094 240.097656 L 163.703125 238.105469 L 198.933594 219.691406 Z M 199.976562 221.6875 " clip-rule="nonzero"/></clipPath><clipPath id="8a0e0e6884"><path d="M 199.976562 221.6875 L 164.746094 240.097656 L 163.703125 238.105469 L 198.933594 219.691406 Z M 199.976562 221.6875 " clip-rule="nonzero"/></clipPath><clipPath id="bc92d76fd9"><path d="M 179 213 L 214 213 L 214 232 L 179 232 Z M 179 213 " clip-rule="nonzero"/></clipPath><clipPath id="eab7dab97a"><path d="M 214.050781 214.414062 L 179.484375 232.480469 L 178.445312 230.484375 L 213.007812 212.421875 Z M 214.050781 214.414062 " clip-rule="nonzero"/></clipPath><clipPath id="99ccfbea66"><path d="M 214.050781 214.414062 L 179.484375 232.480469 L 178.445312 230.484375 L 213.007812 212.421875 Z M 214.050781 214.414062 " clip-rule="nonzero"/></clipPath><clipPath id="3923d04478"><path d="M 214.050781 214.414062 L 179.484375 232.480469 L 178.445312 230.484375 L 213.007812 212.421875 Z M 214.050781 214.414062 " clip-rule="nonzero"/></clipPath><clipPath id="c0187ff33b"><path d="M 153.601562 99.746094 L 221.101562 99.746094 L 221.101562 132.746094 L 153.601562 132.746094 Z M 153.601562 99.746094 " clip-rule="nonzero"/></clipPath><clipPath id="9dfbe19ea9"><path d="M 182.074219 86 L 192.574219 86 L 192.574219 99.394531 L 182.074219 99.394531 Z M 182.074219 86 " clip-rule="nonzero"/></clipPath><clipPath id="fb9c25761a"><path d="M 182.074219 84.394531 L 192.574219 84.394531 L 192.574219 89 L 182.074219 89 Z M 182.074219 84.394531 " clip-rule="nonzero"/></clipPath><clipPath id="bcdbc88c1c"><path d="M 154.261719 250.21875 L 221.761719 250.21875 L 221.761719 283.21875 L 154.261719 283.21875 Z M 154.261719 250.21875 " clip-rule="nonzero"/></clipPath><clipPath id="d532267f95"><path d="M 181.175781 285 L 191.675781 285 L 191.675781 298.605469 L 181.175781 298.605469 Z M 181.175781 285 " clip-rule="nonzero"/></clipPath><clipPath id="dfbb0cbe55"><path d="M 181.175781 283.605469 L 191.675781 283.605469 L 191.675781 288 L 181.175781 288 Z M 181.175781 283.605469 " clip-rule="nonzero"/></clipPath></defs><rect x="-37.5" width="450" fill="#ffffff" y="-37.499999" height="449.999989" fill-opacity="1"/><rect x="-37.5" width="450" fill="#ffffff" y="-37.499999" height="449.999989" fill-opacity="1"/><rect x="-37.5" width="450" fill="#ffffff" y="-37.499999" height="449.999989" fill-opacity="1"/><g clip-path="url(#f513fcb29f)"><path fill="#f0d9df" d="M 186.613281 31.136719 L 30.238281 187.511719 L 186.613281 343.886719 L 342.984375 187.511719 Z M 186.613281 31.136719 " fill-opacity="1" fill-rule="nonzero"/></g><g clip-path="url(#9f2da86174)"><g clip-path="url(#644e486a5a)"><g clip-path="url(#57f5f2025d)"><g clip-path="url(#c5cea089c5)"><path fill="#f19eaf" d="M 163.300781 147.546875 L 188.945312 130.371094 C 189.449219 130.03125 189.578125 129.339844 189.234375 128.824219 C 188.886719 128.308594 188.199219 128.164062 187.691406 128.503906 L 162.050781 145.675781 C 161.542969 146.015625 161.414062 146.707031 161.761719 147.226562 C 162.105469 147.742188 162.796875 147.886719 163.300781 147.546875 Z M 163.300781 147.546875 " fill-opacity="1" fill-rule="nonzero"/></g></g></g></g><g clip-path="url(#4291fdbdde)"><g clip-path="url(#59779e57d6)"><g clip-path="url(#6759a95918)"><g clip-path="url(#c7c56a3bf3)"><path fill="#f19eaf" d="M 162.160156 147.886719 L 195.488281 162.222656 C 196.148438 162.503906 196.878906 162.269531 197.125 161.699219 C 197.371094 161.128906 197.035156 160.4375 196.378906 160.15625 L 163.050781 145.820312 C 162.394531 145.539062 161.660156 145.773438 161.417969 146.34375 C 161.171875 146.914062 161.503906 147.605469 162.160156 147.886719 Z M 162.160156 147.886719 " fill-opacity="1" fill-rule="nonzero"/></g></g></g></g><g clip-path="url(#07458dfe1d)"><g clip-path="url(#6b211a12d5)"><g clip-path="url(#7febdbce5d)"><g clip-path="url(#3e20fc9c6a)"><path fill="#f19eaf" d="M 177.339844 154.496094 L 210.046875 168.5625 C 210.691406 168.839844 211.414062 168.601562 211.660156 168.03125 C 211.90625 167.460938 211.582031 166.773438 210.9375 166.496094 L 178.226562 152.429688 C 177.582031 152.152344 176.859375 152.390625 176.617188 152.960938 C 176.371094 153.53125 176.695312 154.21875 177.339844 154.496094 Z M 177.339844 154.496094 " fill-opacity="1" fill-rule="nonzero"/></g></g></g></g><g clip-path="url(#e37dd93754)"><g clip-path="url(#19fdbec930)"><g clip-path="url(#2ac6a14f36)"><g clip-path="url(#22d748f857)"><path fill="#f19eaf" d="M 190.089844 257.648438 L 166.125 238.203125 C 165.652344 237.820312 164.949219 237.902344 164.558594 238.382812 C 164.167969 238.867188 164.234375 239.570312 164.707031 239.953125 L 188.671875 259.394531 C 189.144531 259.78125 189.847656 259.699219 190.238281 259.214844 C 190.628906 258.734375 190.5625 258.03125 190.089844 257.648438 Z M 190.089844 257.648438 " fill-opacity="1" fill-rule="nonzero"/></g></g></g></g><g clip-path="url(#0ba91df4f7)"><g clip-path="url(#9a42396d40)"><g clip-path="url(#7f355824ea)"><g clip-path="url(#57f939f5a3)"><path fill="#f19eaf" d="M 164.976562 193.046875 L 197.128906 176.242188 C 197.765625 175.910156 198.042969 175.195312 197.757812 174.644531 C 197.46875 174.09375 196.722656 173.917969 196.085938 174.246094 L 163.933594 191.050781 C 163.300781 191.382812 163.019531 192.097656 163.308594 192.648438 C 163.59375 193.199219 164.34375 193.378906 164.976562 193.046875 Z M 164.976562 193.046875 " fill-opacity="1" fill-rule="nonzero"/></g></g></g></g><g clip-path="url(#c932c5d66e)"><g clip-path="url(#79cb80a3c7)"><g clip-path="url(#4d99f578a1)"><g clip-path="url(#418598b4f2)"><path fill="#f19eaf" d="M 179.683594 185.445312 L 211.238281 168.953125 C 211.859375 168.628906 212.132812 167.917969 211.84375 167.367188 C 211.554688 166.816406 210.816406 166.632812 210.195312 166.957031 L 178.640625 183.449219 C 178.015625 183.777344 177.746094 184.484375 178.035156 185.035156 C 178.320312 185.585938 179.058594 185.769531 179.683594 185.445312 Z M 179.683594 185.445312 " fill-opacity="1" fill-rule="nonzero"/></g></g></g></g><g clip-path="url(#1971e1ff65)"><g clip-path="url(#4db2171a2c)"><g clip-path="url(#8b1b1cbb45)"><g clip-path="url(#ac18794814)"><path fill="#f19eaf" d="M 163.425781 193.675781 L 196.753906 208.007812 C 197.414062 208.289062 198.144531 208.058594 198.390625 207.484375 C 198.636719 206.914062 198.300781 206.222656 197.644531 205.941406 L 164.316406 191.605469 C 163.660156 191.324219 162.925781 191.558594 162.683594 192.128906 C 162.4375 192.699219 162.769531 193.390625 163.425781 193.675781 Z M 163.425781 193.675781 " fill-opacity="1" fill-rule="nonzero"/></g></g></g></g><g clip-path="url(#674f3e6467)"><g clip-path="url(#a12f12c878)"><g clip-path="url(#08ce74a5f7)"><g clip-path="url(#a02a06cfec)"><path fill="#f19eaf" d="M 178.605469 200.28125 L 211.3125 214.347656 C 211.957031 214.625 212.679688 214.390625 212.925781 213.820312 C 213.171875 213.246094 212.847656 212.558594 212.203125 212.28125 L 179.492188 198.214844 C 178.847656 197.9375 178.125 198.175781 177.882812 198.746094 C 177.636719 199.316406 177.960938 200.003906 178.605469 200.28125 Z M 178.605469 200.28125 " fill-opacity="1" fill-rule="nonzero"/></g></g></g></g><g clip-path="url(#1ec374424a)"><g clip-path="url(#1127888571)"><g clip-path="url(#be00d31e5c)"><g clip-path="url(#8a0e0e6884)"><path fill="#f19eaf" d="M 166.285156 239.296875 L 198.4375 222.492188 C 199.070312 222.160156 199.351562 221.445312 199.066406 220.894531 C 198.777344 220.34375 198.03125 220.164062 197.394531 220.496094 L 165.242188 237.300781 C 164.609375 237.632812 164.328125 238.347656 164.617188 238.898438 C 164.902344 239.449219 165.652344 239.625 166.285156 239.296875 Z M 166.285156 239.296875 " fill-opacity="1" fill-rule="nonzero"/></g></g></g></g><g clip-path="url(#bc92d76fd9)"><g clip-path="url(#eab7dab97a)"><g clip-path="url(#99ccfbea66)"><g clip-path="url(#3923d04478)"><path fill="#f19eaf" d="M 180.988281 231.695312 L 212.546875 215.203125 C 213.167969 214.875 213.4375 214.167969 213.152344 213.617188 C 212.863281 213.066406 212.125 212.882812 211.503906 213.207031 L 179.949219 229.699219 C 179.324219 230.023438 179.054688 230.734375 179.34375 231.285156 C 179.628906 231.835938 180.367188 232.019531 180.988281 231.695312 Z M 180.988281 231.695312 " fill-opacity="1" fill-rule="nonzero"/></g></g></g></g><g clip-path="url(#c0187ff33b)"><path fill="#f19eaf" d="M 187.351562 98.996094 C 168.714844 98.996094 153.605469 114.105469 153.605469 132.746094 L 221.09375 132.746094 C 221.09375 114.105469 205.988281 98.996094 187.351562 98.996094 Z M 187.351562 98.996094 " fill-opacity="1" fill-rule="nonzero"/></g><g clip-path="url(#9dfbe19ea9)"><path fill="#f19eaf" d="M 192.464844 86.308594 L 192.464844 97.484375 C 192.464844 98.476562 190.164062 99.285156 187.324219 99.285156 C 184.480469 99.285156 182.179688 98.476562 182.179688 97.480469 L 182.179688 86.308594 Z M 192.464844 86.308594 " fill-opacity="1" fill-rule="nonzero"/><path fill="#f19eaf" d="M 187.324219 99.390625 C 184.378906 99.390625 182.074219 98.550781 182.074219 97.480469 L 182.074219 86.199219 L 192.574219 86.199219 L 192.574219 97.480469 C 192.574219 98.550781 190.265625 99.390625 187.324219 99.390625 Z M 182.285156 86.417969 L 182.285156 97.480469 C 182.285156 98.398438 184.59375 99.171875 187.324219 99.171875 C 190.054688 99.171875 192.363281 98.398438 192.363281 97.480469 L 192.363281 86.417969 Z M 182.285156 86.417969 " fill-opacity="1" fill-rule="nonzero"/></g><g clip-path="url(#fb9c25761a)"><path fill="#f19eaf" d="M 192.464844 86.308594 C 192.464844 87.300781 190.164062 88.109375 187.324219 88.109375 C 184.480469 88.109375 182.179688 87.300781 182.179688 86.308594 C 182.179688 85.316406 184.480469 84.507812 187.324219 84.507812 C 190.164062 84.507812 192.464844 85.3125 192.464844 86.308594 Z M 192.464844 86.308594 " fill-opacity="1" fill-rule="nonzero"/><path fill="#f19eaf" d="M 187.324219 88.214844 C 184.378906 88.214844 182.074219 87.378906 182.074219 86.308594 C 182.074219 85.238281 184.378906 84.398438 187.324219 84.398438 C 190.265625 84.398438 192.574219 85.238281 192.574219 86.308594 C 192.574219 87.378906 190.265625 88.214844 187.324219 88.214844 Z M 187.324219 84.621094 C 184.59375 84.621094 182.285156 85.390625 182.285156 86.308594 C 182.285156 87.226562 184.59375 87.996094 187.324219 87.996094 C 190.054688 87.996094 192.363281 87.222656 192.363281 86.308594 C 192.363281 85.394531 190.054688 84.621094 187.324219 84.621094 Z M 187.324219 84.621094 " fill-opacity="1" fill-rule="nonzero"/></g><g clip-path="url(#bcdbc88c1c)"><path fill="#f19eaf" d="M 188.011719 283.96875 C 206.648438 283.96875 221.753906 268.855469 221.753906 250.21875 L 154.265625 250.21875 C 154.265625 268.855469 169.375 283.96875 188.011719 283.96875 Z M 188.011719 283.96875 " fill-opacity="1" fill-rule="nonzero"/></g><g clip-path="url(#d532267f95)"><path fill="#f19eaf" d="M 191.566406 285.519531 L 191.566406 296.695312 C 191.566406 297.6875 189.265625 298.496094 186.425781 298.496094 C 183.582031 298.496094 181.28125 297.6875 181.28125 296.691406 L 181.28125 285.519531 Z M 191.566406 285.519531 " fill-opacity="1" fill-rule="nonzero"/><path fill="#f19eaf" d="M 186.425781 298.601562 C 183.480469 298.601562 181.175781 297.761719 181.175781 296.691406 L 181.175781 285.40625 L 191.675781 285.40625 L 191.675781 296.691406 C 191.675781 297.761719 189.367188 298.601562 186.425781 298.601562 Z M 181.386719 285.625 L 181.386719 296.691406 C 181.386719 297.605469 183.695312 298.378906 186.425781 298.378906 C 189.15625 298.378906 191.464844 297.605469 191.464844 296.691406 L 191.464844 285.625 Z M 181.386719 285.625 " fill-opacity="1" fill-rule="nonzero"/></g><g clip-path="url(#dfbb0cbe55)"><path fill="#f19eaf" d="M 191.566406 285.519531 C 191.566406 286.511719 189.265625 287.316406 186.425781 287.316406 C 183.582031 287.316406 181.28125 286.511719 181.28125 285.519531 C 181.28125 284.527344 183.582031 283.71875 186.425781 283.71875 C 189.265625 283.71875 191.566406 284.523438 191.566406 285.519531 Z M 191.566406 285.519531 " fill-opacity="1" fill-rule="nonzero"/><path fill="#f19eaf" d="M 186.425781 287.425781 C 183.480469 287.425781 181.175781 286.589844 181.175781 285.519531 C 181.175781 284.449219 183.480469 283.609375 186.425781 283.609375 C 189.367188 283.609375 191.675781 284.449219 191.675781 285.519531 C 191.675781 286.589844 189.367188 287.425781 186.425781 287.425781 Z M 186.425781 283.832031 C 183.695312 283.832031 181.386719 284.601562 181.386719 285.519531 C 181.386719 286.4375 183.695312 287.207031 186.425781 287.207031 C 189.15625 287.207031 191.464844 286.433594 191.464844 285.519531 C 191.464844 284.605469 189.15625 283.832031 186.425781 283.832031 Z M 186.425781 283.832031 " fill-opacity="1" fill-rule="nonzero"/></g></svg>